<svg width="108" height="33" viewBox="0 0 108 33" fill="none" xmlns="http://www.w3.org/2000/svg">
<path d="M13.5773 32.5C10.6773 32.5 8.74395 30.8803 7.73334 27.6847L0 2.60123H4.5697L11.8637 26.5465C12.1712 27.5971 12.6985 28.1224 13.5773 28.1224C14.4561 28.1224 14.9834 27.5971 15.2909 26.5465L22.497 2.60123H27.1106L19.3773 27.6847C18.3667 30.8803 16.3894 32.5 13.5773 32.5Z" fill="white"/>
<path d="M33.3877 6.23461C31.8059 6.23461 30.5316 4.96512 30.5316 3.38919C30.5316 1.81327 31.8059 0.5 33.3877 0.5C34.9695 0.5 36.1998 1.81327 36.1998 3.38919C36.1998 4.96512 34.9695 6.23461 33.3877 6.23461ZM31.2347 10.4808H35.5847V31.9309H31.2347V10.4808Z" fill="white"/>
<path d="M50.4488 14.1142C46.2306 14.1142 44.1215 17.5725 44.1215 21.5561V31.9309H39.7715V21.1183C39.7715 14.8584 43.5063 9.95554 50.4488 9.95554C57.4791 9.95554 61.3018 14.8584 61.3018 21.0746V31.9309H56.9518V21.5999C56.9518 17.5725 54.7548 14.1142 50.4488 14.1142Z" fill="white"/>
<path d="M74.7661 32.4124C68.5707 32.5 63.5176 27.3782 63.5176 21.1621C63.5176 14.9897 68.5707 9.91177 74.7661 9.95554C78.7207 9.95554 82.3676 11.7503 84.3449 15.6026L80.7419 17.6163C79.4676 15.2962 77.3146 14.0705 74.7661 14.0705C70.9873 14.0705 67.8676 17.2661 67.8676 21.1621C67.8676 25.1019 70.9873 28.3413 74.7661 28.3413C77.3146 28.3413 79.4676 27.1156 80.7419 24.7955L84.3449 26.7654C82.3676 30.6614 78.7207 32.4124 74.7661 32.4124Z" fill="white"/>
<path d="M104.055 29.3C99.0565 33.5119 92.2681 33.0398 87.9836 27.9926C83.9829 23.2797 84.1085 16.5807 89.0404 12.4254C94.0058 8.2417 100.128 9.21753 104.016 13.7968L105.151 15.1338L91.9989 26.2148C94.7513 28.7115 98.5726 28.8745 101.525 26.3869C103.538 24.6908 104.612 22.2953 104.053 19.6706L107.709 18.8258C108.65 22.849 107.276 26.5863 104.055 29.3ZM90.3172 23.9625L100.013 15.7931C97.6658 13.299 94.2497 13.1387 91.5321 15.4285C88.7474 17.7747 88.5814 21.2398 90.3172 23.9625Z" fill="white"/>
</svg>
